# xmcd
#
# Track frame offsets:
#	150
#	19682
#	43993
#	68329
#	85268
#	109224
#	124185
#	139827
#	155167
#	174061
#	195847
#	210444
#	230510
#	247983
#	260447
#	278066
#
# Disc length: 3965 seconds
#
# Revision: 1
# Processed by: cddbd v1.5.2PL0 Copyright (c) Steve Scherf et al.
# Submitted via: EasyCDDAExtractor 2010.4.0.0
#
DISCID=d30f7b10
DTITLE=Various Artist - Turkce Pop 120
DYEAR=2012
DGENRE=Turkce Pop
TTITLE0=Sezen Aksu - Sarki Soylemek Lazim
TTITLE1=Gokhan Ozen - Dayanamam
TTITLE2=Hande Yener - Aci Veriyor
TTITLE3=Nukhet Duru - Yine Ciktim Yollara
TTITLE4=Kutsi - Sana Ne
TTITLE5=Ilhan Sesen - Neler Oluyor Bize
TTITLE6=Mirkelam - Unutulmaz
TTITLE7=Tan - Alsa
TTITLE8=Volkan Konak - Dido
TTITLE9=Burcu Gunes - Uyan
TTITLE10=Sefarad - Osman Aga
TTITLE11=Lara - Ada Sahilleri
TTITLE12=Baris Akarsu - Gel Gor Beni Ask Neyledi
TTITLE13=Haluk Levent - Cemderimde Gul Oya
TTITLE14=Korhan - Yalanci Nisan
TTITLE15=Baha - Yapayalnizdim
EXTD=
EXTT0=
EXTT1=
EXTT2=
EXTT3=
EXTT4=
EXTT5=
EXTT6=
EXTT7=
EXTT8=
EXTT9=
EXTT10=
EXTT11=
EXTT12=
EXTT13=
EXTT14=
EXTT15=
PLAYORDER=
